<svg width="50" height="18" viewBox="0 0 50 18" fill="none" xmlns="http://www.w3.org/2000/svg">
<path d="M11.2096 13.7809C11.5469 13.7809 11.7954 13.9109 11.9552 14.1708C12.1327 14.4134 12.2214 14.682 12.2214 14.9766C12.2214 15.3405 12.1593 15.6004 12.035 15.7564C11.9285 15.895 11.7155 16.0423 11.396 16.1983C10.6505 16.5449 9.72744 16.8221 8.62689 17.0301C7.52634 17.238 6.34591 17.342 5.08561 17.342C3.50578 17.342 2.34311 17.082 1.59757 16.5622C0.86979 16.0423 0.417144 15.4185 0.239636 14.6907C0.0798786 13.9456 0 12.9752 0 11.7795C0 10.4972 0.0532524 9.24084 0.159757 8.01051C0.266262 6.76285 0.452646 5.17728 0.718908 3.2538C0.843163 2.42202 1.18043 1.82419 1.7307 1.46029C2.28098 1.07905 2.88451 0.88844 3.54129 0.88844C4.09156 0.88844 4.98798 0.871111 6.23053 0.836455L8.54701 0.81046C9.50556 0.81046 10.1978 0.836454 10.6239 0.88844C11.1564 0.992411 11.5469 1.11371 11.7954 1.25234C12.0617 1.37364 12.1948 1.59025 12.1948 1.90216C12.1948 2.24874 12.0705 2.58665 11.822 2.91589C11.5913 3.24513 11.2363 3.40976 10.757 3.40976C10.2067 3.40976 9.4168 3.3751 8.38726 3.30578C7.35771 3.23647 6.58555 3.20181 6.07078 3.20181C5.62701 3.20181 5.19211 3.2278 4.76609 3.27979C4.26907 3.31445 3.91405 3.3751 3.70104 3.46174C3.48803 3.54838 3.36378 3.69568 3.32828 3.90362C3.07976 5.68847 2.95551 7.00545 2.95551 7.85455C3.36378 7.90653 3.76317 7.93253 4.15369 7.93253C4.65071 7.93253 5.18324 7.90653 5.75126 7.85455C6.31929 7.80256 6.68318 7.76791 6.84294 7.75058C7.78373 7.66393 8.59139 7.62061 9.26592 7.62061C9.65644 7.62061 9.94933 7.68993 10.1446 7.82856C10.3576 7.96718 10.4641 8.1578 10.4641 8.4004C10.4641 8.78163 10.3576 9.07622 10.1446 9.28416C9.94933 9.4921 9.59431 9.64806 9.07954 9.75203C8.45826 9.87333 7.6861 9.96864 6.76306 10.038C5.85777 10.1073 4.97023 10.1419 4.10044 10.1419C3.79867 10.1419 3.38153 10.1246 2.849 10.0899C2.79575 11.147 2.76913 12.1261 2.76913 13.0271C2.76913 14.2575 3.60341 14.8726 5.27199 14.8726C6.15953 14.8726 6.89619 14.812 7.48197 14.6907C8.06774 14.5694 8.74227 14.3961 9.50556 14.1708C10.2156 13.9109 10.7836 13.7809 11.2096 13.7809Z" fill="#673AB7"/>
<path d="M16.4752 1.59025C17.132 3.4964 17.8775 5.59316 18.7118 7.88054C19.5461 10.1506 20.3094 12.1174 21.0016 13.7809C21.5164 12.1694 22.2264 10.2372 23.1317 7.98451C24.037 5.71446 24.8802 3.66969 25.6612 1.85018C25.892 1.31299 26.2825 1.0444 26.8328 1.0444C27.3475 1.0444 27.7381 1.14837 28.0043 1.35631C28.2706 1.54693 28.4037 1.88484 28.4037 2.37004C28.4037 2.56065 28.3771 2.72527 28.3238 2.8639C28.2706 3.00253 28.1907 3.18448 28.0842 3.40976C27.5339 4.4668 26.9837 5.68847 26.4334 7.07476C25.8831 8.44372 25.2086 10.1852 24.4098 12.2993C24.4453 12.2127 24.1968 12.8625 23.6643 14.2488L22.7856 16.4842C22.6791 16.7615 22.5016 16.9781 22.2531 17.134C22.0223 17.2727 21.756 17.342 21.4543 17.342C21.1525 17.342 20.8152 17.2727 20.4425 17.134C20.0875 16.9781 19.8301 16.8221 19.6703 16.6662C19.0668 15.5398 18.2946 13.9109 17.3538 11.7795C16.4308 9.64806 15.632 7.68126 14.9575 5.87909L14.5581 4.81337C14.2918 4.08557 14.0966 3.53106 13.9723 3.14983C13.8481 2.75127 13.7859 2.43069 13.7859 2.18809C13.7859 1.84151 13.9812 1.56426 14.3717 1.35631C14.78 1.14837 15.1705 1.0444 15.5433 1.0444C15.7385 1.0444 15.9249 1.08772 16.1024 1.17436C16.2799 1.261 16.4042 1.39963 16.4752 1.59025Z" fill="#673AB7"/>
<path fill-rule="evenodd" clip-rule="evenodd" d="M36.452 0.531175C38.4152 0.531175 39.8166 6.37158 39.8166 6.37158L45.322 2.17828C45.5451 2.01898 46.8128 2.8471 46.9764 3.06435C47.14 3.2816 47.447 3.6992 47.2239 3.8585L40.8176 9.00996L43.8791 16.8495C43.8791 16.8495 44.321 18 42.7194 18C41.1178 18 41.0178 17.4643 41.0178 17.4643L38.5153 10.6712L34.8117 13.9936C34.8117 13.9936 31.3082 17.7068 28.0049 17.7068C24.7017 17.7068 34.4889 0.531175 36.452 0.531175ZM37.5143 8.03278L36.3131 4.61266L30.7076 14.0913L37.5143 8.03278Z" fill="#673AB7"/>
<path d="M43.5202 1.09482C43.2199 1.38797 45.7224 3.34233 45.7224 3.34233C45.7224 3.34233 47.2239 5.58984 47.7244 5.58984C48.2248 5.58984 50.427 0.606226 49.9265 0.11764C49.426 -0.370946 43.8205 0.801665 43.5202 1.09482Z" fill="#673AB7"/>
</svg>
